<?xml version="1.0" encoding="utf-8"?>
<!-- Generator: Adobe Illustrator 26.4.1, SVG Export Plug-In . SVG Version: 6.00 Build 0)  -->
<svg version="1.1" id="Layer_1" xmlns="http://www.w3.org/2000/svg" xmlns:xlink="http://www.w3.org/1999/xlink" x="0px" y="0px"
	 viewBox="0 0 440.7 437" style="enable-background:new 0 0 440.7 437;" xml:space="preserve">
<style type="text/css">
	.st0{fill:#293241;}
	.st1{fill:#E0FBFC;}
	.st2{font-family:'ArialMT';}
	.st3{font-size:62.37px;}
	.st4{clip-path:url(#SVGID_00000134241297197414635630000012922136775619318968_);}
	.st5{opacity:0.1;}
	.st6{fill:none;stroke:#E0FBFC;stroke-width:5;stroke-miterlimit:10;}
</style>
<circle class="st0" cx="220.1" cy="215.3" r="213.5"/>
<text transform="matrix(0.8029 -0.5961 0.5961 0.8029 85.8545 143.9821)" class="st1 st2 st3">T</text>
<text transform="matrix(0.8722 -0.4891 0.4891 0.8722 109.5945 125.8423)" class="st1 st2 st3">e</text>
<text transform="matrix(0.9324 -0.3613 0.3613 0.9324 138.5744 109.6119)" class="st1 st2 st3">c</text>
<text transform="matrix(0.9746 -0.2241 0.2241 0.9746 166.1843 98.6622)" class="st1 st2 st3">h</text>
<text transform="matrix(0.9992 3.891102e-02 -3.891102e-02 0.9992 214.4843 88.3921)" class="st1 st2 st3">M</text>
<text transform="matrix(0.9744 0.2248 -0.2248 0.9744 264.3944 90.9621)" class="st1 st2 st3">e</text>
<text transform="matrix(0.9299 0.3678 -0.3678 0.9299 296.7245 98.3021)" class="st1 st2 st3">e</text>
<text transform="matrix(0.8827 0.4699 -0.4699 0.8827 327.6939 111.0021)" class="st1 st2 st3">t</text>
<text transform="matrix(0.8284 0.5602 -0.5602 0.8284 342.2244 118.2621)" class="st1 st2 st3">s</text>
<g>
	<defs>
		<circle id="SVGID_1_" cx="220.9" cy="210.5" r="212.7"/>
	</defs>
	<clipPath id="SVGID_00000046317232645868665390000015439597962817515711_">
		<use xlink:href="#SVGID_1_"  style="overflow:visible;"/>
	</clipPath>
	<g style="clip-path:url(#SVGID_00000046317232645868665390000015439597962817515711_);">
		<g class="st5">
			<path class="st1" d="M45.9,235.4c5.3,2.7,10.2,5.2,15.2,7.7c4.5,2.2,8.9,4.5,13.4,6.7c1.1,0.5,2.3,0.7,4.1,1.2
				c-0.4-3.1-0.5-5.7-1.2-8.2c-0.3-1-1.6-1.9-2.6-2.5c-4.7-2.5-9.5-4.9-14.2-7.4c-0.7-0.3-1.2-0.8-2.3-1.4c1.7-0.8,2.9-1.5,4.2-1.9
				c12.7-4.1,25.4-8.1,38.1-12.1c5.9-1.9,11.4-0.9,16.2,2.9c5.8,4.7,11.3,9.7,16.9,14.6c1.4,1.2,0.4,2-0.7,2.7
				c-5.1,3.3-10.2,6.5-15.2,9.9c-1.1,0.8-2.1,2.1-2.7,3.3c-2.4,4.6-4.7,9.3-7.1,14c-1.1,2.2-1.1,2.7,1.1,4
				c6.2,3.9,12.4,7.8,18.5,11.8c3.3,2.1,4.1,3.7,2.9,7.1c-2.9,7.8-6,15.6-9,23.4c-1,2.5-3,3.7-5.6,3.8c-9.1,0.4-18.2,0.6-27.3,0.9
				c-1.8,0-2.2-1-1.9-2.6c2.1-10.3,4.2-20.6,6.3-30.9c0.8-3.9,1.2-7.8,1.8-11.8c0.1-0.3,0.2-0.8,0-1c-1.9-2.2-3.9-4.4-5.9-6.5
				c-0.1-0.1-1.8,0.7-2,1.4c-0.9,2.6-1.5,5.4-2.1,8.1c-1,4.1-1.9,4.8-6.2,5c-11.1,0.5-22.1,1-33.2,1.5c-3.4,0.2-4.4-0.6-4.1-3.8
				c0.6-6.3,1.4-12.6,2.2-18.9c0.7-5.7,1.3-11.5,2-17.2C45.4,238,45.6,236.9,45.9,235.4L45.9,235.4z M97.3,252.7
				c0.1-0.3,0.2-0.6,0.3-0.8c-1.1-1.7-2.8-2.4-4.7-2.7c-0.5-0.1-1.3,0.3-1.5,0.7c-0.2,0.3,0.2,1.3,0.6,1.4
				C93.7,251.9,95.5,252.3,97.3,252.7L97.3,252.7z"/>
			<path class="st1" d="M207.3,210.1c10-1,20.1-2.1,30.1-3c5.8-0.5,11.7-0.9,17.5-1.3c2-0.1,3.2,0.9,4.1,2.4
				c4.2,7.6,8.5,15.2,12.6,22.9c3,5.6,6.1,11.3,8.6,17.1c2.1,5,3.4,10.4,4.9,15.7c0.8,2.9,0.3,3.5-2.8,4c-7.2,1.1-14.4,2.1-21.6,3.2
				c-3.4,0.5-5.8-0.5-7.7-3.4c-2.8-4.2-5.5-8.4-8.8-12.2c-5.4-6.2-12.1-10.8-19-15.3c-10-6.5-18.9-14.2-27.3-22.6
				c-0.8-0.8-1.7-1.7-2.4-2.7c-1.5-2.1-0.8-3.9,1.7-4.2c3.3-0.5,6.6-0.7,9.9-1C207.3,209.7,207.3,209.9,207.3,210.1L207.3,210.1z"/>
			<path class="st1" d="M347.8,248.2c26.9,2.5,53.9,2.4,80.8,3.6c3.1,0.1,5.5,1.4,7.3,3.9c7.4,10.5,14.8,21,22.1,31.6
				c0.5,0.7,0.6,1.6,0.9,2.5c-0.9,0.2-1.9,0.6-2.8,0.5c-5.2-0.9-10.5-1.6-15.6-2.9c-9.4-2.4-19-3.3-28.6-4.1
				c-11.5-1-23.1-2-34.5-3.4c-7.4-0.9-14.7-2.7-22.1-4c-3.5-0.6-4.9-2.9-5.6-6c-1.3-5.8-2.6-11.5-4-17.2c-0.1-0.5-0.3-0.9-0.4-1.4
				C344.7,248.6,345.2,248.1,347.8,248.2L347.8,248.2z"/>
			<path class="st1" d="M437.3,244.8c-17-1.1-33.5-2.1-49.9-3.4c-13.6-1-27.1-2.5-40.7-3.7c-2.7-0.2-4.1-1.5-4.9-4.1
				c-2.3-7.3-4.8-14.5-7.2-21.8c-1-3.1,0-4.2,3.3-3.4c23.8,5.4,47.6,10.5,71.2,16.6c13.6,3.5,27.3,7,40.8,11c3.9,1.1,6.8,3.4,9,6.6
				c0.4,0.6,0.8,1.6,0.5,2c-0.3,0.5-1.3,0.7-2,0.7C450.5,245.2,443.6,245,437.3,244.8L437.3,244.8z"/>
			<path class="st1" d="M437.5,317.3c9.9,0.4,17.7,0.4,25.4,1.2c7.9,0.8,15.6,2.4,23.4,3.6c1.3,0.2,2.1,0.8,2.1,2.2
				c0.1,4.6,0.2,9.3,0.4,13.9c0.1,1.9-0.8,2.5-2.6,2.6c-8.5,0.3-17,0.3-25.4,1.1c-6.4,0.6-12.8,2.3-19.2,3.3
				c-9.6,1.5-19.3,2.8-28.9,4.2c-2.1,0.3-4.2,0.7-6.3,1c-3.2,0.5-3.9-0.2-3.3-3.3c1.1-6,2.1-12,3-18.1c0.4-2.4,0.5-4.9,0.6-7.3
				c0.1-1.8,1-2.8,2.9-2.9C419.8,318.3,429.7,317.7,437.5,317.3L437.5,317.3z"/>
			<path class="st1" d="M50.9,285.6c9.2,0,18.3,0,27.5,0c3.9,0,4.3,0.5,3.7,4.2c-1.1,6.8-2.3,13.6-3.4,20.4
				c-0.6,3.6-2.5,5.2-6.2,5.3c-13.8,0.1-27.7,0-41.5,0c-3,0-3.6-0.6-4.3-3.5c-2-7.7-4-15.5-6.1-23.2c-0.7-2.6-0.3-3.1,2.4-3.1
				C32.3,285.6,41.6,285.6,50.9,285.6L50.9,285.6z"/>
			<path class="st1" d="M125.7,219.4c1-0.3,2-0.8,3-0.9c11.7-0.6,23.4-1,35.1-1.8c4.1-0.3,8.1-1.4,12-2.2c3.5-0.7,6.5,0.1,8.9,2.6
				c7.4,7.3,14.7,14.6,22,22c1.6,1.6,1.4,2.7-0.6,3.8c-4.9,2.6-9.8,5.2-14.8,7.6c-5.1,2.5-10.4,2.9-15.6-0.1
				c-5.4-3.2-10.6-6.5-16-9.7c-10.5-6.2-21.1-12.4-31.6-18.6c-0.9-0.5-1.7-1.3-2.5-1.9C125.7,219.9,125.7,219.6,125.7,219.4
				L125.7,219.4z"/>
			<path class="st1" d="M425.6,218.1c-10.4-0.8-20.8-1.9-30.6-5.7c-3.5-1.4-7.1-2.2-10.6-3.5c-2.6-0.9-5.1-2.1-7.5-3.4
				c-3.6-2-4.3-5.4-3.7-9c1.6-10,3.3-19.9,4.9-29.9c0.3-1.9,1.7-2.1,3-1.7c6.9,1.9,14.1,3.4,18.5,10c3.5,5.2,7.1,10.4,10.8,15.4
				c4.9,6.6,10,13.1,15,19.7c1.3,1.7,2.4,3.6,3.5,5.4c1.2,2,0.8,2.6-1.5,2.6C426.7,218.1,426.2,218.1,425.6,218.1L425.6,218.1z"/>
			<path class="st1" d="M251.8,151.5c-2.5,5.2-4.6,9.7-6.8,14.3c-3.1,6.8-6.3,13.5-9.3,20.3c-1.1,2.6-2.9,4.1-5.7,4.7
				c-12.8,2.6-25.5,5.4-38.3,7.9c-1.2,0.2-2.6-0.1-3.9-0.2c0.2-1.2,0.1-2.6,0.6-3.7c4.4-9.4,8.8-18.8,13.2-28.2
				c1.1-2.3,2.8-3.8,5.3-4.4c13.5-3.4,27.1-6.7,40.6-10.1C248.8,151.9,250,151.8,251.8,151.5L251.8,151.5z"/>
			<path class="st1" d="M13.1,221.8c0.3-3.6,0.6-8.5,1.2-13.4c0.8-5.9,3.9-10.3,9.1-13.4c6.4-3.8,13-6.1,20.8-6
				c6.6,0.1,13.3-1.1,19.9-2.1c4.6-0.7,5.3,1.4,4.8,4.9c-0.6,3.6-1.6,7.1-2.3,10.6c-0.6,3-2.4,5-5.1,6.2c-2.9,1.3-5.8,2.6-8.7,3.8
				c-7.2,2.8-13.5,6.9-19.3,11.8c-2.5,2.1-5.2,4-7.9,5.9c-2.7,1.9-5.6,2.2-8.5,0.6C14,229,12.9,226.4,13.1,221.8L13.1,221.8z"/>
			<path class="st1" d="M246.1,190.5c-0.2,0-0.4,0-0.6,0.1c-3.6,0.1-4.4-1-2.9-4.3c4.7-10.6,9.4-21.1,14-31.7
				c1.5-3.5,3.9-5.4,7.9-5.5c8.3-0.2,16.6-0.5,25-0.8c1.5-0.1,2.3,0.7,2.2,2.1c0,0.9-0.1,1.8-0.3,2.7c-2.5,9.8-5,19.5-7.5,29.3
				c-0.8,3.3-3,5.4-6.5,5.7c-10.4,0.9-20.8,1.7-31.2,2.6C246.1,190.6,246.1,190.6,246.1,190.5L246.1,190.5z"/>
			<path class="st1" d="M163.2,326.6c-1.2,0.7-2.3,1.9-3.6,2.1c-5.1,1-10.2,2-15.4,2.6c-15.9,1.6-31.7,3.2-47.6,4.5
				c-8,0.6-16.1,0.6-24.1,0.8c-12.3,0.4-24.6,0.6-36.8,1c-4.3,0.1-4.3,0.1-4.9-4c-0.4-2.5-0.8-4.9-1.2-7.4c-0.3-1.8,0.5-2.6,2.3-2.5
				c4,0,7.9,0,11.9,0c14.1,0,28.1-0.1,42.2,0c20.3,0.2,40.5,0.5,60.8,0.8c4.1,0.1,8.2,0.1,12.3,0.2c1.4,0.1,2.7,0.6,4.1,0.9
				C163.1,325.9,163.2,326.2,163.2,326.6L163.2,326.6z"/>
			<path class="st1" d="M404.6,144.5c4.6,0,8.7,0,12.9,0c7.1,0.1,14.3,0.2,21.4,0.2c3.3,0,5.9,1.1,8.1,3.6
				c5.2,5.9,10.7,11.7,16.1,17.5c2,2.2,2.1,2.8-0.1,4.8c-6,5.3-12.1,10.5-18.1,15.7c-1.7,1.4-2.7,1.4-4.1-0.3
				c-11.5-13-22.9-26.1-34.4-39.1C405.8,146.3,405.4,145.5,404.6,144.5L404.6,144.5z"/>
			<path class="st1" d="M457.1,307.2c-1.3,0.2-2.5,0.5-3.8,0.5c-12.4,0-24.9-0.5-37.2-0.1c-15.9,0.6-31.8,2.6-47.4,5.9
				c-4.6,1-9.3,1.6-14,2.4c-2.7,0.4-3.3-0.1-3.6-2.7c-0.5-4.3-0.8-8.6-1.3-12.9c-0.1-1.3-0.5-2.6-0.9-3.9c-0.6-2.3,0.1-3.4,2.5-3.4
				c4.4,0.1,8.7,0.3,13.1,0.7c12.7,0.9,25.3,1.8,38,3c16.8,1.5,33.5,3.9,49.8,8.4c1.6,0.4,3.2,0.8,4.8,1.2
				C457.1,306.6,457.1,306.9,457.1,307.2L457.1,307.2z"/>
			<path class="st1" d="M181.1,265.3c1.2,0.5,3,0.9,4.4,1.9c7.8,5.1,15.6,10.3,23.4,15.5c1.5,1,2.9,2.2,4.2,3.5
				c1.5,1.4,1.4,2.9-0.3,4c-3.1,2.2-6.2,4.6-9.5,6.5c-2.4,1.4-5.2,2-7.9,2.9c-0.6,0.2-1.5-0.1-2.2-0.4c-8.4-3.9-16.8-7.8-25.2-11.8
				c-5.4-2.6-10.8-5.4-16.2-8.2c-0.7-0.4-1.2-1.2-1.8-1.8c0.6-0.5,1.1-1.2,1.9-1.5c8.6-3.4,17.3-6.7,26-10
				C178.8,265.6,179.7,265.6,181.1,265.3L181.1,265.3z"/>
			<path class="st1" d="M226.5,281.9c-1.4-0.5-3.1-1-4.6-1.8c-10.3-6.1-20.6-12.3-30.9-18.5c-1.9-1.1-1.9-2.4,0-3.4
				c7.1-3.6,14.3-7.2,21.5-10.6c4.2-2,8.2-1.4,11.7,1.9c7.5,7,15.1,13.8,22.6,20.7c2.2,2,2,3.1-0.8,4.2c-5.4,2.3-10.9,4.5-16.4,6.7
				C228.8,281.4,227.8,281.5,226.5,281.9L226.5,281.9z"/>
			<path class="st1" d="M370.3,164.7c-0.9,12.1-1.7,24.3-2.6,36.4c-0.2,2.9-1,3.4-3.8,2.6c-5.9-1.6-11.7-3.1-17.5-4.8
				c-3.4-1-5.7-4.4-5-7.9c2-10.5,4-21,6-31.6c0.6-3.1,1.9-3.9,5-3.1c5.2,1.4,10.3,2.9,15.5,4.3C369.8,161.4,370.9,162.5,370.3,164.7
				L370.3,164.7z"/>
			<path class="st1" d="M192.9,166c-0.3,1.2-0.6,2.3-0.9,3.3c-3.7,9.5-7.4,18.9-11,28.4c-0.9,2.3-2.4,3.3-4.8,3.7
				c-9.9,1.9-19.7,0.4-29.5-1c-1.6-0.2-1.9-1.1-1-2.7c2-3.5,4.1-7,6.1-10.5c2.5-4.4,4.9-8.8,7.5-13.1c0.7-1.1,2-2.4,3.2-2.7
				c9.8-2,19.5-3.7,29.3-5.5C192.1,166,192.4,166.1,192.9,166L192.9,166z"/>
			<path class="st1" d="M291.4,186.3c0.7-2.6,1.3-5.1,2-7.6c1-3.7,2.1-7.4,3.1-11c0.9-3.1,1.4-3.5,4.8-2.9
				c8.2,1.5,16.5,3.1,24.7,4.7c2.8,0.6,5.6,1.3,8.4,2c1.7,0.4,2.5,1.3,2.1,3.1c-1.3,6.7-2.6,13.5-3.8,20.3c-0.3,1.8-1.3,2.1-3,1.7
				c-10.4-2.4-20.9-4.7-31.3-7c-1.4-0.3-2.8-0.4-4.2-0.5C292.4,189,291.5,188.2,291.4,186.3L291.4,186.3z"/>
			<path class="st1" d="M173.9,259.5c-2.5,1.1-4.6,2.1-6.9,2.9c-8,2.9-16,5.7-24.1,8.6c-2.2,0.8-4.2,0.5-6.1-0.5
				c-6.6-3.8-13.1-7.6-19.6-11.5c-1.8-1.1-1.7-1.9,0.1-3c8-4.7,16-9.4,24-14.1c1.6-1,3.3-1.3,5-0.3c8.8,5.6,17.5,11.2,26.3,16.8
				C173,258.5,173.2,258.9,173.9,259.5L173.9,259.5z"/>
			<path class="st1" d="M486.6,294.4c0.3,6.1,0.3,6.1-3.9,4.5c-2.2-0.8-4.7-1.3-6.7-2.4c-1.8-1-3.7-2.3-4.9-4
				c-6.8-9.6-13.5-19.4-20.2-29.1c-1.3-1.8-2.5-3.7-3.6-5.6c-1.1-1.9-0.5-2.8,1.7-3c5.2-0.6,10.2,0.2,15.2,1.4
				c8.4,2,14,7.8,19.1,14.1c1,1.3,1.3,3.4,1.5,5.1C485.6,282.3,486.1,289.2,486.6,294.4L486.6,294.4z"/>
			<path class="st1" d="M282.3,303.8c0,3.2-1,4.7-3.6,5.6c-18.5,5.9-37.1,11.5-56.1,15.9c-3,0.7-3.8,0.3-4.5-2.7
				c-0.2-1-0.4-1.9-0.6-2.9c-0.4-1.9,0.4-3.1,2.1-3.9c17.1-7.7,34.2-15.4,53.1-18.3c1.6-0.2,3.2-0.6,4.8-0.9
				c1.9-0.3,3.2,0.4,3.7,2.2C281.6,300.7,282,302.5,282.3,303.8L282.3,303.8z"/>
			<path class="st1" d="M152.1,315.4c-6.4,0-12.7,0-19.1,0c-3.1,0-3.8-1.1-2.6-3.9c3.1-7.1,6.2-14.1,9.3-21.2c0.7-1.5,1.5-1.8,2.9-1
				c11.6,6,23.2,12,34.9,17.9c0.2,0.1,0.5,0.3,0.7,0.4c3.8,2.4,3.8,3,0.3,5.7c-2.5,2-5.4,2.8-8.7,2.8c-5.9-0.1-11.9,0-17.8,0
				C152.1,315.9,152.1,315.6,152.1,315.4L152.1,315.4z"/>
			<path class="st1" d="M78.9,205.7c-3.2,0.1-4-0.9-3.3-3.4c1.8-5.9,3.7-11.8,5.5-17.7c1-3.1,1.9-6.2,2.8-9.4
				c0.6-1.9,1.7-2.9,3.8-2.8c2.9,0.1,5.8-0.1,8.7,0.1c4.2,0.2,8.5,0.5,12.7,0.7c1.8,0.1,2.1,1,1.5,2.5c-2.4,5.9-4.7,11.9-7,17.9
				c-0.8,1.9-1.5,3.9-2.1,5.9c-0.6,1.9-1.9,3.2-3.8,3.5C91.1,204,84.5,204.9,78.9,205.7L78.9,205.7z"/>
			<path class="st1" d="M293,338.4c0-4.9,0-9.7,0-14.6c0-2,0.8-2.9,2.9-2.9c5.7,0.1,11.4,0.3,17.1,0.4c1.5,0,2.7,0.5,2.8,2.4
				c0.5,7.7,1.1,15.4,1.6,23.1c0.1,2.3-0.2,4.6-0.3,6.9c-0.1,1.8-1.2,2.5-2.8,2.2c-6.3-0.9-12.5-1.9-18.8-2.8
				c-1.7-0.2-2.2-1.2-2.2-2.8c0-4,0-7.9,0-11.9C293.2,338.4,293.1,338.4,293,338.4L293,338.4z"/>
			<path class="st1" d="M150,172.8c-0.6,1.3-1.1,2.4-1.6,3.4c-3.7,7.3-7.4,14.5-11.1,21.8c-1.6,3.3-4.1,4.9-7.9,4.7
				c-4.8-0.3-9.6-0.3-14.4-0.4c-2.5-0.1-3.3-1.1-2.4-3.4c3.1-7.8,6.3-15.6,9.6-23.4c0.4-0.9,1.8-2,2.8-2c7.7-0.5,15.4-0.7,23-1
				C148.5,172.5,149.1,172.6,150,172.8L150,172.8z"/>
			<path class="st1" d="M135.3,372.2c-4.9,0-9.7,0-14.5,0c-1.8,0-2.5-0.6-1.9-2.4c2.1-7.1,4.2-14.3,6.3-21.4
				c0.8-2.6,2.6-3.9,5.4-4.2c5.7-0.6,11.3-1.5,17-2.2c2.9-0.4,3.9,0.6,3,3.4c-2.6,8.1-5.2,16.1-8,24.1c-1.1,3.1-1.4,3.3-4.7,3.3
				c-0.9,0-1.7,0-2.5,0C135.3,372.6,135.3,372.4,135.3,372.2L135.3,372.2z"/>
			<path class="st1" d="M45.5,348.5c4.2-0.2,8.3-0.4,12.5-0.6c3.1-0.2,3.8,0.5,3.4,3.4c-0.6,5.3-1.2,10.6-1.8,16
				c-0.3,2.4-1.1,3.1-3.6,3.1c-7.9,0-15.8-0.1-23.7-0.2c-1.7,0-2.6-0.8-2.7-2.5c-0.2-5.3-0.3-10.6-0.5-15.9
				c-0.1-1.8,0.6-2.5,2.5-2.6C36.2,349,40.8,348.7,45.5,348.5C45.5,348.5,45.5,348.5,45.5,348.5L45.5,348.5z"/>
			<path class="st1" d="M284.8,341.1c0,3,0,6,0,9c-0.1,3.1-1.2,4-4.4,3.5c-4.5-0.7-9.1-1.2-13.6-1.8c-3.1-0.4-3.7-1-3.5-3.9
				c0.4-7.1,0.9-14.3,1.3-21.4c0.3-4,0.7-4.5,4.6-5.5c3.6-1,7.2-2,10.7-3.1c2.5-0.8,3.4-0.2,3.6,2.3c0.5,7,1,13.9,1.6,20.9
				C285,341,284.9,341.1,284.8,341.1L284.8,341.1z"/>
			<path class="st1" d="M341.8,269.4c0,2.6-1.3,3.6-3.5,3.4c-3.8-0.4-6.3-2.5-7.3-6.5c-1-4.1-1.7-8.3-2.6-12.5
				c-2.8-13.4-7.4-26.2-13.5-38.5c-1.2-2.4-2.8-4.7-4.2-7c-1.3-2.1-0.9-3,1.6-3.2c1.8-0.1,3.7-0.1,5.5-0.1c3.5,0.1,5.7,1.9,6.7,5.1
				c5.4,17.6,10.7,35.3,16,52.9C341.2,265.2,341.5,267.6,341.8,269.4L341.8,269.4z"/>
			<path class="st1" d="M307.3,317.3c-4.3-0.6-8.6-1.1-12.9-1.8c-2-0.3-2.4-1.9-2.6-3.6c-0.8-5.5-1.5-11-2.2-16.5
				c-0.3-2.4-0.7-4.8-1-7.2c-0.2-2.2,0.2-2.9,2.4-2.9c4.3-0.1,8.6-0.1,12.9,0c3,0.1,4,0.9,4.8,3.8c1.2,4.8,2.2,9.6,3.3,14.4
				c0.6,2.6,1.2,5.3,1.8,7.9c0.9,3.8,0.1,5-3.9,5.2c-0.9,0-1.7,0.1-2.5,0.1C307.4,317,307.3,317.1,307.3,317.3L307.3,317.3z"/>
			<path class="st1" d="M355.3,339.8c-0.8-0.7-2.1-1.3-2.3-2.1c-0.5-2.9-0.8-5.8-0.9-8.7c-0.1-2.1,1.1-3.2,3.3-3.5
				c11-1.6,21.9-3.3,32.8-5c2.5-0.4,5-1,7.5-1.3s3.1,0.2,2.8,2.7c-0.3,2.3-0.8,4.5-1.1,6.8c-0.4,2.5-1.9,4.1-4.3,4.5
				c-12.2,2.1-24.5,4.1-36.7,6.1c-0.2,0-0.4,0-0.6,0C355.5,339.5,355.4,339.6,355.3,339.8L355.3,339.8z"/>
			<path class="st1" d="M323.1,265.3c-0.4,2.6-2.5,4.2-5,3.5c-2.5-0.8-4.2-2.4-5.1-4.9c-4.1-12.3-8-24.6-12.2-36.8
				c-2.2-6.5-4.8-12.9-7.2-19.4c-0.2-0.6-0.5-1.2-0.6-1.8c-0.3-1.4,0.3-2.1,1.8-2c3.1,0.2,5.1,1.9,6.5,4.4
				c4.9,8.8,9.5,17.7,12.8,27.2c1.3,3.7,3.1,7.3,4.2,11.1C320,252.8,321.4,259.1,323.1,265.3L323.1,265.3z"/>
			<path class="st1" d="M477.6,197c0.5,2.1-1.1,4.2-4,5.9c-2.4,1.4-4.6,3.2-7,4.7c-2.2,1.4-3.9,1.4-5.7-0.4
				c-3.5-3.5-7-7.1-10.4-10.6c-2.3-2.4-2.2-3.6,0.3-5.8c5.4-4.6,10.9-9.2,16.5-13.7c3.4-2.7,8.3-0.7,8.8,3.7
				C476.8,185.7,477.1,190.7,477.6,197L477.6,197z"/>
			<path class="st1" d="M275.1,204.9c3.5-0.1,6,1.9,7.5,5.4c3.2,7.5,6.4,15,9.6,22.5c3.7,8.8,7.4,17.6,11,26.4
				c0.6,1.4,1.1,2.9,1.3,4.4c0.5,2.8-0.8,4-3.6,3.4c-4.1-0.8-6.5-3.4-7.9-7.1c-2.6-6.8-5.1-13.7-7.8-20.5c-4-10-8.3-19.9-12.5-29.9
				c-0.2-0.4-0.4-0.9-0.6-1.3C271.4,205.7,272,204.9,275.1,204.9L275.1,204.9z"/>
			<path class="st1" d="M-9.5,170c-1.9,6.4-4.2,12.9-5.8,19.5c-1.6,6.8-2.7,13.6-4,20.5c-0.3,1.6,0,3.5-2.6,3.6
				c-2.8,0.1-3.9-0.6-4.5-3.4c-2.1-9.4-2.6-19-3.1-28.6c-0.2-3.2-0.3-6.4-0.4-9.6c0-1.1,0.3-2,1.6-2C-22.1,170-15.9,170-9.5,170z"/>
			<path class="st1" d="M237.7,341.9c0-3.1,0-6.3,0-9.4c0-1.9,0.9-3,2.6-3.5c5.1-1.5,10.1-3,15.2-4.4c3-0.9,4.4,0.1,4.2,3.2
				c-0.4,7-0.9,14-1.3,21c-0.1,1.7-1.1,2.7-2.8,2.9c-5.1,0.6-10.2,1.2-15.4,1.8c-2,0.2-2.6-0.5-2.6-2.4
				C237.9,348,237.8,345,237.7,341.9L237.7,341.9L237.7,341.9z"/>
			<path class="st1" d="M332.2,289.8c4.5,0.5,6.7,2.9,7.9,6.1c1,2.7,1.4,5.7,2,8.5c2.4,11,2.6,22.1,2.7,33.2c0,4.2,0.2,8.5,0.2,12.7
				c0,1.5-0.2,3.1-0.5,4.5c-0.7,3.3-4,5.1-7,3.8c-0.9-0.4-1.6-2-1.6-3c-0.1-4,0.3-8.1,0.3-12.1c0.1-8.8,0.5-17.7-0.2-26.5
				c-0.6-7.8-2.5-15.5-3.8-23.2C332,292.6,332.2,291.3,332.2,289.8L332.2,289.8z"/>
			<path class="st1" d="M331.8,327.3c-0.3,7.7-0.6,16.2-0.9,24.7c0,1.1,0,2.3-0.4,3.3c-0.3,0.8-1.5,2-2,1.9
				c-0.9-0.2-1.8-1.2-2.1-2.1c-0.4-1.3-0.3-2.7-0.5-4.1c-1.3-13.8-2.3-27.6-3.9-41.3c-0.8-6.7-2.8-13.3-4.2-20
				c-0.5-2.5,0.1-3.1,2.7-2.9c0.9,0.1,1.8,0.2,2.7,0.3c1.6,0.1,2.7,1,3,2.5C328.6,301.7,331.3,313.9,331.8,327.3L331.8,327.3z"/>
			<path class="st1" d="M33,259.3c-0.3,5.2-0.6,10.4-0.8,15.6c-0.1,1.7-0.8,2.4-2.5,2.4c-2.2,0-4.4-0.1-6.6-0.2
				c-1.6-0.1-2.5-0.9-2.8-2.4c-1.4-6.8-2.9-13.5-4-20.3c-0.8-4.7,1.4-7.7,6-9.1c2.6-0.8,5.1-1.5,7.7-2.3c2.8-0.9,3.6-0.3,3.5,2.7
				c-0.1,2.3-0.2,4.6-0.3,6.9C33.2,254.8,33,257.1,33,259.3C32.9,259.3,32.9,259.3,33,259.3L33,259.3z"/>
			<path class="st1" d="M82.4,347.6c2.4,0,4.8,0,7.2,0c2,0.1,2.5,0.8,2,2.7c-1.5,6.1-3.1,12.3-4.7,18.4c-0.4,1.6-1.4,2.5-3.2,2.4
				c-4.8-0.2-9.7-0.3-14.6-0.4c-1.5,0-2-0.9-1.9-2.2c0.4-4.9,0.7-9.7,1.3-14.5c0.5-4.2,2.8-6.2,7.2-6.3
				C78,347.6,80.2,347.6,82.4,347.6C82.4,347.6,82.4,347.6,82.4,347.6L82.4,347.6z"/>
			<path class="st1" d="M53.7,170.7c5.6,0.3,11.1,0.5,16.7,0.8c3,0.1,3,0.5,2.3,3.2c-0.9,3.5-2.9,4.9-6.5,5.3
				c-10.5,1-20.9,2.2-31.4,3.4c-1.9,0.2-3.8,0.6-5.7,0.6c-0.8,0-1.8-0.2-2.5-0.7c-0.2-0.2,0.1-1.4,0.5-2c1.9-3,3.8-6,5.8-9
				c1.1-1.6,2.5-2.4,4.6-2.3C43,170.3,48.3,170.5,53.7,170.7L53.7,170.7L53.7,170.7z"/>
			<path class="st1" d="M163.7,359.9c0.3-1.4,0.3-2.3,0.7-2.9c4.3-7.1,7.9-14.6,13.8-20.6c2.9-2.9,5.8-5.7,8.8-8.4
				c1.9-1.7,3.1-1.3,3.7,1.1c1.2,4.8,2.5,9.7,3.7,14.5c0.5,2.1-0.4,4-2.2,4.8c-8.2,3.5-16.5,7.1-24.8,10.6
				C166.4,359.5,165.3,359.6,163.7,359.9L163.7,359.9z"/>
			<path class="st1" d="M353.5,354.1c0-0.9-0.1-1.8,0-2.7c0.2-1.8,1-3,2.9-3.4c11-1.9,21.9-3.8,32.9-5.5c3.4-0.5,7.2,3.4,6.9,6.7
				c-0.2,1.6-1.4,2.3-2.9,2.6c-9.3,2-18.6,3.9-27.9,5.9c-2.5,0.5-5,1-7.5,1.4c-3.6,0.6-4.4,0-4.4-3.5
				C353.6,355,353.6,354.5,353.5,354.1C353.6,354.1,353.6,354.1,353.5,354.1L353.5,354.1z"/>
			<path class="st1" d="M216.7,311.7c-1.4-2.5-1.3-3.5,0.7-4.8c12.4-8,25.5-14.6,39.7-18.8c5.6-1.6,11.4-1.9,17.2-1.3
				c0.5,0,1.1,0,1.4,0.2c1.1,0.9,2.8,1.9,3,3.1c0.4,1.8-1.7,1.9-3,2.1c-9.6,1.8-19.3,3.4-28.5,7.1c-9.6,3.8-19.2,7.7-28.8,11.6
				C218,311.2,217.4,311.5,216.7,311.7L216.7,311.7z"/>
			<path class="st1" d="M102.6,371.5c-2.3,0-4.7,0-7,0c-1.7,0-2.4-0.8-1.9-2.3c2.1-6.3,4-12.6,6.3-18.8c0.9-2.5,3.5-3.7,6-4
				c2.9-0.4,5.9-0.4,8.8-0.4c2,0,1.7,1.5,1.4,2.8c-1,4.3-2,8.5-3,12.8c-0.7,2.8-1.3,5.7-1.9,8.5c-0.2,1.1-0.7,1.5-1.8,1.5
				C107.2,371.5,104.9,371.5,102.6,371.5L102.6,371.5L102.6,371.5z"/>
			<path class="st1" d="M334,378.2c0-4.1,0.5-4.7,4.5-5.2c9.4-1.2,18.9-2.5,28.3-3.6c3.8-0.5,5.5,0.5,6.6,3.7
				c0.8,2.2,0.4,3.2-1.9,3.6c-7,1.4-14.1,2.7-21.2,3.9c-4.1,0.7-8.3,0.9-12.4,1.3C334.2,382.2,334,382,334,378.2L334,378.2z"/>
			<path class="st1" d="M200.6,361.1c-0.3-2.3-0.8-4.4-0.9-6.5c-0.4-7.9-0.8-15.8-3-23.5c-0.5-1.6-1-3.2-1.6-4.8
				c-0.8-2.3-0.2-4.3,1.7-5.8c1.3-1,2.6-2,3.9-2.8c1.7-1.1,3.3-0.3,3.5,1.7c0.6,7,1.3,14,1.7,21c0.2,4.6,0.1,9.2,0,13.8
				C205.8,358,204.6,359.6,200.6,361.1L200.6,361.1z"/>
			<path class="st1" d="M194.4,357.4c1.1,6.8-0.8,6.3-6,7.7c-8.3,2.4-16.7,4.5-25.1,6.6c-1.8,0.5-3.2-0.5-2.6-2.3
				c0.4-1.4,1.4-3.1,2.6-3.7c8.6-4,17.4-7.9,26.2-11.7C193.9,352.2,194.4,352.7,194.4,357.4L194.4,357.4z"/>
			<path class="st1" d="M232.7,346.9c0.9,8.1-1.1,8.6-7.3,9.5c-1.3,0.2-2.6,0.7-3.9,0.9c-1.4,0.2-2.2-0.4-2.1-1.8
				c0.5-5.2,0.9-10.4,1.8-15.5c0.6-3.7,5.8-7.9,9.8-8.2c1.7-0.2,1.7,1.1,1.7,2.2C232.7,338.3,232.7,342.6,232.7,346.9L232.7,346.9z"
				/>
			<path class="st1" d="M449,358.8c-20.3,4.6-40.6,9.2-61,13.9c-0.9-3.3,1-6.5,4.5-7.1c11.7-2,23.5-4.1,35.2-5.8
				c6.3-0.9,12.8-1.2,19.2-1.8c0.6-0.1,1.3-0.1,2-0.1C448.9,358.2,448.9,358.5,449,358.8L449,358.8z"/>
			<path class="st1" d="M316,371.8c3.5,0.2,6.3,0.3,9,0.4c2.5,0.1,3.3,1.1,3.1,3.6c-0.1,1.6-0.4,3.2-0.5,4.8c-0.1,1.4-0.9,2-2.2,2
				c-3.1,0-6.2,0.1-9.3,0c-4-0.1-8-0.5-12.1-0.7c-1.7-0.1-2.4-0.6-1.9-2.3c0.3-1.2,0.5-2.5,1-3.6c1-2.8,3.1-4.2,6.1-4.2
				C311.8,371.8,314.3,371.8,316,371.8L316,371.8z"/>
			<path class="st1" d="M251.5,378.9c-1.4,0-2.9,0.1-4.3,0c-6.9-0.4-13.8-0.8-20.7-1.2c-0.8,0-1.6,0-2.3-0.2
				c-0.9-0.3-2.2-0.7-2.4-1.3c-0.2-0.8,0.4-2,0.9-2.8c0.4-0.6,1.2-1.1,1.9-1.2c6.1-1.1,12.3-2.7,18.5-3.2
				C249.5,368.4,252.4,372.2,251.5,378.9L251.5,378.9z"/>
			<path class="st1" d="M268.8,380.1c-2.2-0.1-4.5-0.3-6.7-0.4c-1.8-0.1-2.6-0.8-2.2-2.6c0.3-1.5,0.5-3,0.7-4.5
				c0.2-1.7,1.2-2.3,2.9-2.4c4.1-0.2,8.3-0.4,12.4-0.6c2.4-0.1,3,0.6,2.8,3c-0.1,1.8-0.4,3.6-0.6,5.4c-0.2,1.8-1.2,2.6-3,2.5
				C273,380.3,270.9,380.2,268.8,380.1C268.8,380.1,268.8,380.1,268.8,380.1L268.8,380.1z"/>
			<path class="st1" d="M290.4,381.3c-2-0.1-3.9-0.2-5.9-0.4c-1.2-0.1-2.1-0.5-1.9-1.9c0.4-2.3,0.7-4.5,1.2-6.8
				c0.5-2,1.6-2.6,3.6-2.1c4,1,6.4,3.8,6.4,7.8C294,380.9,293.5,381.4,290.4,381.3L290.4,381.3z"/>
			<path class="st1" d="M216.8,376.5h-6.9C212,374.8,215.2,374.6,216.8,376.5z"/>
			<path class="st1" d="M97.3,252.7c-1.8-0.5-3.6-0.8-5.3-1.4c-0.3-0.1-0.7-1.1-0.6-1.4c0.2-0.4,1-0.8,1.5-0.7
				c1.9,0.3,3.6,1.1,4.7,2.7C97.5,252.2,97.4,252.5,97.3,252.7L97.3,252.7z"/>
		</g>
	</g>
</g>
<path class="st1" d="M223.6,144.8c-25.9,0-47,23.4-47,52.2s47,88.3,47,88.3s47-59.4,47-88.3S249.5,144.8,223.6,144.8L223.6,144.8z
	 M224.2,213.6c-7.6,0-13.8-6.2-13.8-13.8s6.2-13.8,13.8-13.8s13.8,6.2,13.8,13.8S231.8,213.6,224.2,213.6z"/>
<circle class="st6" cx="220.6" cy="216.8" r="213"/>
</svg>
