<?xml version="1.0" encoding="UTF-8"?><svg id="Layer_1" xmlns="http://www.w3.org/2000/svg" viewBox="0 0 158.5 283.7"><defs><style>.cls-1{font-family:HelveticaNeue-CondensedBold, 'Helvetica Neue';font-size:35px;}.cls-1,.cls-2{fill:#293241;}.cls-3{fill:#e0fbfc;stroke-width:7px;}.cls-3,.cls-2{stroke:#293241;}.cls-4{letter-spacing:0em;}.cls-2{stroke-width:8px;}</style></defs><line class="cls-2" x1="82" y1="148.4" x2="82" y2="283.7"/><path class="cls-3" d="M82.2,190.6c-7.3-10.5-14.5-20.7-21.5-31-12.4-18.2-24.2-36.8-33.8-56.7-5.5-11.4-9.7-23.2-9.3-36.2,1-31.2,23.2-56.1,51.8-61.8,17.7-3.6,34.3-.5,49.1,9.8,15.8,11,25.2,26,27.8,45.4,2,15.4-2.2,29.3-8.7,42.7-11.1,23-25.1,44.3-39.5,65.3-5.1,7.4-10.4,14.7-15.9,22.5Z"/><text class="cls-1" transform="translate(47.2 67)"><tspan class="cls-4" x="0" y="0">T</tspan><tspan x="14.2" y="0">ech</tspan><tspan x="-10.4" y="42" xml:space="preserve"> Event</tspan></text></svg>